<svg xmlns="http://www.w3.org/2000/svg" viewBox="0 0 1301.3 388.2" height="170" width="250" id="svg2">
<style>
.s0{stop-color:#facd8a}
.s1{stop-color:#f5906c}
.s2{stop-color:#e62d38}
.s3{stop-color:#78459a}
.s4{stop-color:#e5eba5}
.s5{stop-color:#38bbba}
.s6{stop-color:#8dd1cd}
.s7{stop-color:#006f8c}
.s0,.s1,.s2,.s3,.s4,.s5,.s6,.s7{stop-opacity:1}
.s8{fill:#fff;}
</style><metadata id="metadata8"/>
  <defs id="defs6">
    <clipPath id="clipPath18" clipPathUnits="userSpaceOnUse">
      <path id="path16" d="M0 291.1H975.9V0H0Z"/>
    </clipPath>
    <clipPath id="clipPath56" clipPathUnits="userSpaceOnUse">
      <path id="path54" d="m168.9 126 22.8-22.8c17.3 9.5 30.5 16.7 31.7 17.4v0c3.6 2 7.3 7 0 11v0c-2.4 1.3-15.2 8.3-31.8 17.3v0z"/>
    </clipPath>
    <linearGradient id="linearGradient66" spreadMethod="pad" gradientTransform="matrix(-24.151508,47.39999,47.39999,24.151508,209.97607,103.72168)" gradientUnits="userSpaceOnUse" y2="0" x2="1" y1="0" x1="0">
      <stop id="stop62" offset="0" class="s0"/>
      <stop id="stop64" offset="1" class="s1"/>
    </linearGradient>
    <clipPath id="clipPath76" clipPathUnits="userSpaceOnUse">
      <path id="path74" d="m96.2 52.7c1.6-0.2 3.6 0.2 5.9 1.5v0c4.7 2.6 55.2 30.2 89.6 49v0l-22.8 22.8z"/>
    </clipPath>
    <linearGradient id="linearGradient86" spreadMethod="pad" gradientTransform="matrix(-94.341103,-97.693085,-97.693085,94.341103,191.32275,127.03613)" gradientUnits="userSpaceOnUse" y2="0" x2="1" y1="0" x1="0">
      <stop id="stop82" offset="0" class="s2"/>
      <stop id="stop84" offset="1" class="s3"/>
    </linearGradient>
    <clipPath id="clipPath96" clipPathUnits="userSpaceOnUse">
      <path id="path94" d="m95.8 198.6 73.1-72.6 22.7 22.9c0 0-84.5 46.1-89.6 48.9v0c-1.3 0.7-2.9 1-4.4 1v0c-0.7 0-1.3-0.1-1.9-0.2"/>
    </clipPath>
    <linearGradient id="linearGradient106" spreadMethod="pad" gradientTransform="matrix(-89.307182,95.770195,95.770195,89.307182,188.81348,125.43457)" gradientUnits="userSpaceOnUse" y2="0" x2="1" y1="0" x1="0">
      <stop id="stop102" offset="0" class="s4"/>
      <stop id="stop104" offset="1" class="s5"/>
    </linearGradient>
    <linearGradient id="linearGradient126" spreadMethod="pad" gradientTransform="matrix(-1.19e-5,271.11658,271.11658,1.19e-5,129.65186,-9.9404297)" gradientUnits="userSpaceOnUse" y2="0" x2="1" y1="0" x1="0">
      <stop id="stop122" offset="0" class="s6"/>
      <stop id="stop124" offset="1" class="s7"/>
    </linearGradient>
    <clipPath id="clipPath136" clipPathUnits="userSpaceOnUse">
      <path id="path134" d="M0 291.1H975.9V0H0Z"/>
    </clipPath>
    <linearGradient id="linearGradient174" spreadMethod="pad" gradientTransform="matrix(-24.151508,47.39999,47.39999,24.151508,209.97607,103.72168)" gradientUnits="userSpaceOnUse" y2="0" x2="1" y1="0" x1="0">
      <stop id="stop170" offset="0" class="s0"/>
      <stop id="stop172" offset="1" class="s1"/>
    </linearGradient>
    <linearGradient id="linearGradient194" spreadMethod="pad" gradientTransform="matrix(-94.341103,-97.693085,-97.693085,94.341103,191.32275,127.03613)" gradientUnits="userSpaceOnUse" y2="0" x2="1" y1="0" x1="0">
      <stop id="stop190" offset="0" class="s2"/>
      <stop id="stop192" offset="1" class="s3"/>
    </linearGradient>
    <linearGradient id="linearGradient214" spreadMethod="pad" gradientTransform="matrix(-89.307182,95.770195,95.770195,89.307182,188.81348,125.43457)" gradientUnits="userSpaceOnUse" y2="0" x2="1" y1="0" x1="0">
      <stop id="stop210" offset="0" class="s4"/>
      <stop id="stop212" offset="1" class="s5"/>
    </linearGradient>
    <linearGradient id="linearGradient234" spreadMethod="pad" gradientTransform="matrix(-1.19e-5,271.11658,271.11658,1.19e-5,129.65186,-9.9404297)" gradientUnits="userSpaceOnUse" y2="0" x2="1" y1="0" x1="0">
      <stop id="stop230" offset="0" class="s6"/>
      <stop id="stop232" offset="1" class="s7"/>
    </linearGradient>
    <clipPath id="clipPath244" clipPathUnits="userSpaceOnUse">
      <path id="path242" d="M0 291.1H975.9V0H0Z"/>
    </clipPath>
  </defs>
  <g transform="matrix(1.3333333,0,0,-1.3333333,0,388.18533)" id="g10">
    <g id="g12">
      <g clip-path="url(#clipPath18)" id="g14">
        <g transform="translate(42.2456,289.2959)" id="g20">
          <path id="path22" d="m0 0h891.5c21.6 0 39.3-17.7 39.3-39.3v-208.8c0-21.6-17.7-39.3-39.3-39.3H0c-21.6 0-39.3 17.7-39.3 39.3V-39.3C-39.3-17.7-21.6 0 0 0" fill="#000"/>
        </g>
        <g transform="translate(42.2456,289.2959)" id="g24">
          <path id="path26" d="m0 0h891.5c21.6 0 39.3-17.7 39.3-39.3v-208.8c0-21.6-17.7-39.3-39.3-39.3H0c-21.6 0-39.3 17.7-39.3 39.3V-39.3C-39.3-17.7-21.6 0 0 0Z" style="fill:none;stroke-width:5;stroke:#a09f9e"/>
        </g>
        <g transform="translate(360.9253,131.7705)" id="g28">
          <path id="path30" d="m0 0h-45.4v-13.5h32.2c-1.6-18.9-17.3-27-32.2-27-19 0-35.6 14.9-35.6 35.9 0 20.4 15.8 36.1 35.6 36.1 15.3 0 24.3-9.7 24.3-9.7l9.4 9.8c0 0-12.1 13.5-34.2 13.5-28.1 0-49.9-23.7-49.9-49.4 0-25.1 20.5-49.6 50.6-49.6 26.5 0 45.9 18.2 45.9 45 0 5.7-0.8 8.9-0.8 8.9z" fill="#fff"/>
        </g>
        <g transform="translate(399.5317,141.5303)" id="g32">
          <path id="path34" d="m0 0c-18.6 0-32-14.6-32-31.6 0-17.2 13-32.1 32.2-32.1 17.4 0 31.7 13.3 31.7 31.7C31.9-10.9 15.3 0 0 0m0.2-12.5c9.2 0 17.8-7.4 17.8-19.3 0-11.7-8.6-19.3-17.9-19.3-10.2 0-18.2 8.1-18.2 19.4 0 11 7.9 19.3 18.2 19.3" fill="#fff"/>
        </g>
        <g transform="translate(469.8628,141.5303)" id="g36">
          <path id="path38" d="m0 0c-18.6 0-32-14.6-32-31.6 0-17.2 13-32.1 32.2-32.1 17.4 0 31.7 13.3 31.7 31.7C31.9-10.9 15.3 0 0 0m0.2-12.5c9.2 0 17.8-7.4 17.8-19.3 0-11.7-8.6-19.3-17.9-19.3-10.2 0-18.2 8.1-18.2 19.4 0 11 7.9 19.3 18.2 19.3" fill="#fff"/>
        </g>
        <g transform="translate(538.7524,141.4971)" id="g40">
          <path id="path42" d="m0 0c-17.1 0-30.6-15-30.6-31.8 0-19.2 15.6-31.9 30.3-31.9 9.1 0 13.9 3.6 17.5 7.7v-6.3c0-11-6.7-17.6-16.7-17.6-9.7 0-14.6 7.2-16.3 11.3l-12.2-5.1c4.3-9.2 13.1-18.7 28.6-18.7 17 0 30 10.7 30 33.2V-1.9H17.2V-7.3C13.1-2.9 7.4 0 0 0m1.2-12.5c8.4 0 17-7.2 17-19.4 0-12.4-8.6-19.3-17.2-19.3-9.1 0-17.6 7.4-17.6 19.2 0 12.2 8.8 19.5 17.8 19.5" fill="#fff"/>
        </g>
        <g transform="translate(631.3813,141.5732)" id="g44">
          <path id="path46" d="m0 0c-16.1 0-29.7-12.8-29.7-31.8 0-20 15.1-31.9 31.2-31.9 13.5 0 21.7 7.4 26.7 14l-11 7.3c-2.9-4.4-7.6-8.8-15.6-8.8-8.9 0-13.1 4.9-15.6 9.6l42.7 17.7-2.2 5.2C22.3-8.5 12.7 0 0 0Zm0.6-12.2c5.8 0 10-3.1 11.8-6.8l-28.5-11.9c-1.2 9.2 7.5 18.7 16.7 18.7z" fill="#fff"/>
        </g>
        <path id="path48" d="m580 79.8h14v93.8h-14z" fill="#fff"/>
      </g>
    </g>
    <g id="g50">
      <g clip-path="url(#clipPath56)" id="g52">
        <g id="g58">
          <g id="g60">
            <path id="path68" d="m168.9 126 22.8-22.8c17.3 9.5 30.5 16.7 31.7 17.4v0c3.6 2 7.3 7 0 11v0c-2.4 1.3-15.2 8.3-31.8 17.3v0z" fill="url(#linearGradient66)"/>
          </g>
        </g>
      </g>
    </g>
    <g id="g70">
      <g clip-path="url(#clipPath76)" id="g72">
        <g id="g78">
          <g id="g80">
            <path id="path88" d="m96.2 52.7c1.6-0.2 3.6 0.2 5.9 1.5v0c4.7 2.6 55.2 30.2 89.6 49v0l-22.8 22.8z" fill="url(#linearGradient86)"/>
          </g>
        </g>
      </g>
    </g>
    <g id="g90">
      <g clip-path="url(#clipPath96)" id="g92">
        <g id="g98">
          <g id="g100">
            <path id="path108" d="m95.8 198.6 73.1-72.6 22.7 22.9c0 0-84.5 46.1-89.6 48.9v0c-1.3 0.7-2.9 1-4.4 1v0c-0.7 0-1.3-0.1-1.9-0.2" fill="url(#linearGradient106)"/>
          </g>
        </g>
      </g>
    </g>
    <g id="g110">
      <g id="g112">
        <g id="g118">
          <g id="g120">
            <path id="path128" d="M90.4 190.1C90.4 181.6 91 68.4 91 61.3v0c0-4.9 2-8.4 5.6-8.7v0l72.4 73.4-73.1 72.6c-3-0.7-5.5-3.3-5.4-8.5" fill="url(#linearGradient126)"/>
          </g>
        </g>
      </g>
    </g>
    <g id="g130">
      <g clip-path="url(#clipPath136)" id="g132">
        <path id="path138" d="m767.9 79.8h14v93.8h-14zM693.5 79.8 693.5 79.8 693.5 79.8 693.5 79.8 693.5 79.8h14v93.8h-14z" fill="#fff"/>
        <g transform="translate(707.561,159.5327)" id="g142">
          <path id="path144" d="m0 0v-31.7h19.9c8.7 0 15.9 7.2 15.9 15.9C35.8-7.2 28.6 0 19.9 0Zm-14 14h33.9c16.4 0 29.9-13.4 29.9-29.9 0-16.4-13.4-29.9-29.9-29.9h-33.9z" fill="#fff"/>
        </g>
        <g transform="translate(885.3696,49.2236)" id="g146">
          <path id="path148" d="M0 0 40.6 92.3H25.3L-15.3 0Z" fill="#fff"/>
        </g>
        <g transform="translate(889.8989,70.3604)" id="g150">
          <path id="path152" d="m0 0-31.3 71.2h15.3L5.6 22.1H0Z" fill="#fff"/>
        </g>
        <g transform="translate(839.2505,106.8643)" id="g154">
          <path id="path156" d="M0 0C-1.8-7.8-7.8-13.4-15.5-15.5-31.7-19.9-35.7 6.4-11.7 2.8-7.5 2.3-3.9 1.3 0 0M0-27.1H14V6.6c2.2 34.8-41.9 43-58.6 17.9l11.3-7.6c8.2 14.3 31.4 11 33-4.3-7 1.9-14.6 3.2-21.5 2.5-10.8-1.1-20-7.9-21.5-19.2-0.8-6.1 0.6-13.5 4.8-18.1 6.6-7.1 17.4-8 26.3-5.6 5 1.4 9 4.3 12.2 8.2z" fill="#fff"/>
        </g>
      </g>
    </g>
    <g id="g158">
      <g id="g160">
        <g id="g166">
          <g id="g168">
            <path id="path176" d="m168.9 126 22.8-22.8c17.3 9.5 30.5 16.7 31.7 17.4v0c3.6 2 7.3 7 0 11v0c-2.4 1.3-15.2 8.3-31.8 17.3v0z" fill="url(#linearGradient174)"/>
          </g>
        </g>
      </g>
    </g>
    <g id="g178">
      <g id="g180">
        <g id="g186">
          <g id="g188">
            <path id="path196" d="m96.2 52.7c1.6-0.2 3.6 0.2 5.9 1.5v0c4.7 2.6 55.2 30.2 89.6 49v0l-22.8 22.8z" fill="url(#linearGradient194)"/>
          </g>
        </g>
      </g>
    </g>
    <g id="g198">
      <g id="g200">
        <g id="g206">
          <g id="g208">
            <path id="path216" d="m95.8 198.6 73.1-72.6 22.7 22.9c0 0-84.5 46.1-89.6 48.9v0c-1.3 0.7-2.9 1-4.4 1v0c-0.7 0-1.3-0.1-1.9-0.2" fill="url(#linearGradient214)"/>
          </g>
        </g>
      </g>
    </g>
    <g id="g218">
      <g id="g220">
        <g id="g226">
          <g id="g228">
            <path id="path236" d="M90.4 190.1C90.4 181.6 91 68.4 91 61.3v0c0-4.9 2-8.4 5.6-8.7v0l72.4 73.4-73.1 72.6c-3-0.7-5.5-3.3-5.4-8.5" fill="url(#linearGradient234)"/>
          </g>
        </g>
      </g>
    </g>
    <g id="g238">
      <g clip-path="url(#clipPath244)" id="g240">
        <g transform="translate(297.5845,231.9858)" id="g246">
          <path id="path248" d="m0 0c0 4.5-1 8-3 10.4-2 2.4-4.9 3.6-8.6 3.6h-5.3v-28.5h6.4c3.2 0 5.8 1.3 7.7 3.9C-0.9-8 0-4.5 0 0m7.5 0c0-4.3-0.7-8.1-2.2-11.4-1.4-3.2-3.5-5.7-6.2-7.4-2.7-1.7-5.7-2.6-9.1-2.6h-14.5v42.1h13c6 0 10.7-1.8 14-5.4C5.9 11.8 7.5 6.7 7.5 0" fill="#fff"/>
        </g>
        <path id="path250" d="m310.8 252.7h7.5v-42.1h-7.5z" fill="#fff"/>
        <g transform="translate(354.4683,222.749)" id="g252">
          <path id="path254" d="m0 0c0-4.1-1.3-7.3-3.9-9.5-2.6-2.2-6.4-3.3-11.5-3.3-4.6 0-8.2 1-10.8 2.9-2.6 1.9-4.3 4.8-5 8.7l7.2 1.4c0.5-2.2 1.4-3.9 2.9-4.9 1.4-1 3.4-1.5 5.9-1.5 5.2 0 7.9 1.9 7.9 5.6 0 1.2-0.3 2.2-0.9 3-0.6 0.8-1.4 1.4-2.5 1.9-1.1 0.5-3.2 1.1-6.3 1.9-2.7 0.7-4.5 1.3-5.6 1.8-1.1 0.4-2 1-2.8 1.6-0.8 0.6-1.6 1.3-2.2 2.2-0.6 0.9-1.1 1.9-1.4 3-0.3 1.2-0.5 2.5-0.5 4 0 3.8 1.2 6.7 3.6 8.7 2.4 2 6 3 10.6 3 4.4 0 7.8-0.8 10-2.5 2.2-1.6 3.7-4.3 4.3-8.1l-7.3-1.2c-0.4 1.8-1.1 3.2-2.3 4.1-1.1 0.9-2.8 1.4-4.9 1.4-4.5 0-6.8-1.7-6.8-5 0-1.1 0.2-2 0.7-2.7 0.5-0.7 1.2-1.3 2.1-1.8 0.9-0.5 2.9-1.1 5.8-1.8 3.4-0.9 5.9-1.6 7.4-2.4C-4.7 9.9-3.5 9.1-2.7 8.1-1.8 7.1-1.1 6-0.7 4.6-0.2 3.3 0 1.8 0 0" fill="#fff"/>
        </g>
        <g transform="translate(381.894,239.25)" id="g256">
          <path id="path258" d="m0 0c0 4.4-2.2 6.6-6.7 6.6h-7.8V-7h8c2.1 0 3.7 0.6 4.8 1.8C-0.6-4 0-2.3 0 0m7.6 0.1c0-2.7-0.5-5.1-1.6-7.3-1.1-2.1-2.6-3.8-4.5-4.9-2-1.2-4.3-1.7-7-1.7h-8.9v-14.8h-7.5V13.5H-5.8c4.3 0 7.6-1.2 9.9-3.5 2.3-2.3 3.5-5.6 3.5-9.8" fill="#fff"/>
        </g>
        <g transform="translate(421.8755,231.8662)" id="g260">
          <path id="path262" d="m0 0c0 4.5-0.9 8.1-2.7 10.7-1.8 2.6-4.4 3.9-7.7 3.9-3.4 0-5.9-1.3-7.8-3.8C-20.1 8.2-21 4.6-21 0c0-4.6 0.9-8.3 2.8-10.9 1.9-2.7 4.4-4 7.7-4 3.4 0 5.9 1.3 7.8 3.9C-0.9-8.4 0-4.8 0 0m7.7 0c0-4.4-0.7-8.2-2.2-11.6-1.5-3.3-3.6-5.9-6.3-7.6-2.7-1.8-5.9-2.6-9.6-2.6-5.6 0-10 1.9-13.2 5.8-3.2 3.9-4.8 9.2-4.8 16 0 6.8 1.6 12 4.8 15.8 3.2 3.8 7.6 5.7 13.3 5.7 5.7 0 10.1-1.9 13.3-5.7C6.1 11.9 7.7 6.7 7.7 0" fill="#fff"/>
        </g>
        <g transform="translate(457.0024,210.6123)" id="g264">
          <path id="path266" d="m0 0-15.6 32.4c0.3-3.1 0.5-5.7 0.5-7.6V0h-6.7v42.1h8.6L2.6 9.4c-0.3 3-0.5 5.7-0.5 8.2V42.1H8.8V0Z" fill="#fff"/>
        </g>
        <path id="path268" d="m472.8 252.7h7.5v-42.1h-7.5z" fill="#fff"/>
        <g transform="translate(511.4722,223.3169)" id="g270">
          <path id="path272" d="m0 0c0 3.9-2.4 5.9-7.2 5.9h-9.5V-6.2h9.8c2.4 0 4.2 0.5 5.3 1.5C-0.6-3.6 0-2.1 0 0m-2.1 17.6c0 1.9-0.5 3.2-1.5 4-1 0.8-2.5 1.2-4.6 1.2h-8.5V12.4h8.6c2.1 0 3.7 0.4 4.6 1.3 1 0.9 1.4 2.2 1.4 3.9M7.5-0.7c0-3.8-1.2-6.8-3.7-8.9-2.4-2.1-5.8-3.1-10.2-3.1h-17.9v42.1h16.4c4.4 0 7.7-0.9 9.9-2.7 2.2-1.8 3.4-4.4 3.4-7.9 0-2.4-0.6-4.4-1.7-6.1C2.6 11.1 0.9 10-1.4 9.4 1.5 9 3.7 8 5.2 6.2 6.8 4.5 7.5 2.2 7.5-0.7" fill="#fff"/>
        </g>
        <g transform="translate(524.8423,210.6123)" id="g274">
          <path id="path276" d="M0 0V42.1H7.5V6.8h19.2l0-6.8z" fill="#fff"/>
        </g>
        <g transform="translate(556.6392,210.6123)" id="g278">
          <path id="path280" d="M0 0V42.1H28.2V35.3H7.5V24.7H26.6V17.9H7.5V6.8h21.7l0-6.8z" fill="#fff"/>
        </g>
        <g transform="translate(635.0259,222.749)" id="g282">
          <path id="path284" d="m0 0c0-4.1-1.3-7.3-3.9-9.5-2.6-2.2-6.4-3.3-11.5-3.3-4.6 0-8.2 1-10.8 2.9-2.6 1.9-4.3 4.8-5 8.7l7.2 1.4c0.5-2.2 1.4-3.9 2.9-4.9 1.4-1 3.4-1.5 5.9-1.5 5.2 0 7.9 1.9 7.9 5.6 0 1.2-0.3 2.2-0.9 3-0.6 0.8-1.4 1.4-2.5 1.9-1.1 0.5-3.2 1.1-6.3 1.9-2.7 0.7-4.5 1.3-5.6 1.8-1.1 0.4-2 1-2.8 1.6-0.8 0.6-1.6 1.3-2.2 2.2-0.6 0.9-1.1 1.9-1.4 3-0.3 1.2-0.5 2.5-0.5 4 0 3.8 1.2 6.7 3.6 8.7 2.4 2 6 3 10.6 3 4.4 0 7.8-0.8 10-2.5 2.2-1.6 3.7-4.3 4.3-8.1l-7.3-1.2c-0.4 1.8-1.1 3.2-2.3 4.1-1.1 0.9-2.8 1.4-4.9 1.4-4.5 0-6.8-1.7-6.8-5 0-1.1 0.2-2 0.7-2.7 0.5-0.7 1.2-1.3 2.1-1.8 0.9-0.5 2.9-1.1 5.8-1.8 3.4-0.9 5.9-1.6 7.4-2.4C-4.7 9.9-3.5 9.1-2.7 8.1-1.8 7.1-1.1 6-0.7 4.6-0.2 3.3 0 1.8 0 0" fill="#fff"/>
        </g>
        <g transform="translate(655.437,210.0146)" id="g286">
          <path id="path288" d="m0 0c-4.9 0-8.7 1.4-11.3 4.2-2.6 2.8-3.9 6.9-3.9 12.1v26.3h7.5V17.1c0-3.3 0.7-5.9 2-7.6 1.3-1.7 3.3-2.6 5.9-2.6 2.7 0 4.7 0.9 6.2 2.7 1.4 1.8 2.2 4.4 2.2 7.8v25.3h7.5V16.8C16 11.5 14.6 7.3 11.8 4.4 9 1.5 5.1 0 0 0" fill="#fff"/>
        </g>
        <g transform="translate(701.8481,239.8179)" id="g290">
          <path id="path292" d="m0 0c0 4-2.2 6.1-6.6 6.1h-9.6V-6.4h9.8c2.1 0 3.7 0.6 4.8 1.7C-0.5-3.6 0-2 0 0m0.9-29.2-8.3 16h-8.8v-16h-7.5v42.1H-5.8c4.3 0 7.6-1.1 9.9-3.2C6.4 7.5 7.6 4.4 7.6 0.4c0-2.9-0.7-5.5-2.1-7.6-1.4-2.1-3.3-3.6-5.8-4.2l9.7-17.7z" fill="#fff"/>
        </g>
      </g>
    </g>
  </g>
</svg>
